<svg xmlns="http://www.w3.org/2000/svg" version="1.1" xmlns:xlink="http://www.w3.org/1999/xlink" xmlns:svgjs="http://svgjs.dev/svgjs" width="2000" height="1500" viewBox="0 0 2000 1500"><rect width="2000" height="1500" fill="#ffffff"></rect><g transform="matrix(0.75,0,0,0.75,248.89752778958893,177.78508064516132)"><svg viewBox="0 0 326 248" data-background-color="#fafafa" preserveAspectRatio="xMidYMid meet" height="1521" width="2000" xmlns="http://www.w3.org/2000/svg" xmlns:xlink="http://www.w3.org/1999/xlink"><g id="tight-bounds" transform="matrix(1,0,0,1,0.2396039603960105,0.4000000000000057)"><svg viewBox="0 0 325.520792079208 247.2" height="247.2" width="325.520792079208"><g><svg viewBox="0 0 325.520792079208 247.2" height="247.2" width="325.520792079208"><g><svg viewBox="0 0 325.520792079208 247.2" height="247.2" width="325.520792079208"><g id="textblocktransform"><svg viewBox="0 0 325.520792079208 247.2" height="247.2" width="325.520792079208" id="textblock"><g><svg viewBox="0 0 325.520792079208 247.2" height="247.2" width="325.520792079208"><g transform="matrix(1,0,0,1,0,0)"><svg width="325.520792079208" viewBox="-1.9 -36 53.199999999999996 40.400000000000006" height="247.2" data-palette-color="#130912"><path d="M-1.9 4.4L-1.9 4.4Q-1.7 2.55-0.58 1.73 0.55 0.9 2.35 0.65 4.15 0.4 6.25 0.4L6.25 0.4Q7.15-1.55 8.05-4.38 8.95-7.2 9.78-10.45 10.6-13.7 11.4-17.07 12.2-20.45 12.9-23.55 13.6-26.65 14.23-29.13 14.85-31.6 15.35-33.05L15.35-33.05Q12.75-33 10.93-32.9 9.1-32.8 7.53-32.6 5.95-32.4 4.1-32.05L4.1-32.05Q4.45-33.95 6.85-34.93 9.25-35.9 14.3-35.9L14.3-35.9Q16.8-35.9 19.38-35.7 21.95-35.5 24.1-35.27 26.25-35.05 27.4-34.85L27.4-34.85Q26.2-33.65 24.88-33.38 23.55-33.1 22.55-33.1L22.55-33.1Q21-33.1 19.63-33.1 18.25-33.1 17.1-33.05L17.1-33.05Q16.9-32 16.5-29.78 16.1-27.55 15.55-24.68 15-21.8 14.4-18.73 13.8-15.65 13.23-12.88 12.65-10.1 12.15-8.1L12.15-8.1Q11.35-4.9 10.35-2.7 9.35-0.5 7.95 0.45L7.95 0.45Q10.55 0.6 13.5 0.98 16.45 1.35 18.8 1.4L18.8 1.4Q17.35 2.85 15.78 3.2 14.2 3.55 13.15 3.55L13.15 3.55Q11.15 3.55 9.22 3.58 7.3 3.6 5.43 3.65 3.55 3.7 1.73 3.88-0.1 4.05-1.9 4.4ZM23.5 4.35L23.5 4.35Q22.4 3.7 22.1 2.98 21.8 2.25 21.8 1.75L21.8 1.75Q21.8 0.35 22.82-2.05 23.85-4.45 25.57-7.53 27.3-10.6 29.4-13.9L29.4-13.9Q27.55-14.05 26.25-14.1 24.95-14.15 24-14.15L24-14.15 22.25-14.15Q22.8-15.6 24.17-16.18 25.55-16.75 27.45-16.75L27.45-16.75Q28.3-16.75 29.2-16.65 30.1-16.55 31.05-16.4L31.05-16.4Q33.6-20.25 36.27-23.88 38.95-27.5 41.27-30.33 43.6-33.15 45.15-34.6L45.15-34.6Q46.6-36 47.55-36L47.55-36Q48.1-36 48.77-35.58 49.45-35.15 50.2-34.4L50.2-34.4Q49.7-34 48.92-32.27 48.15-30.55 47.27-27.95 46.4-25.35 45.55-22.25 44.7-19.15 43.97-15.93 43.25-12.7 42.82-9.8 42.4-6.9 42.4-4.7L42.4-4.7Q42.4-2.8 42.82-1.75 43.25-0.7 44.25-0.7L44.25-0.7Q45.55-0.7 47.2-2.5 48.85-4.3 50.8-8.1L50.8-8.1 51.3-7.6Q49.8-3.6 47.47-1.05 45.15 1.5 42.65 1.5L42.65 1.5Q40.6 1.5 39.67-0.33 38.75-2.15 38.75-5.2L38.75-5.2Q38.75-6.8 38.97-8.7 39.2-10.6 39.6-12.65L39.6-12.65Q37.4-13 35.57-13.23 33.75-13.45 32.2-13.65L32.2-13.65Q29.85-9.3 27.62-4.7 25.4-0.1 23.5 4.35ZM39.95-14.4L39.95-14.4Q40.7-17.7 41.7-21.08 42.7-24.45 43.82-27.5 44.95-30.55 45.95-32.85L45.95-32.85Q44.4-31.9 42.37-29.48 40.35-27.05 38.1-23.58 35.85-20.1 33.5-15.95L33.5-15.95Q35.2-15.6 36.87-15.18 38.55-14.75 39.95-14.4Z" opacity="1" transform="matrix(1,0,0,1,0,0)" fill="#000000" class="wordmark-text-0" data-fill-palette-color="primary" id="text-0"></path></svg></g></svg></g></svg></g></svg></g></svg></g><defs></defs></svg><rect width="325.520792079208" height="247.2" fill="none" stroke="none" visibility="hidden"></rect></g></svg></g></svg>